<svg width="56" height="57" viewBox="0 0 56 57" fill="none" xmlns="http://www.w3.org/2000/svg">
<g filter="url(#filter0_d)">
<rect x="8" y="4.01221" width="40" height="40" rx="20" fill="white"/>
<path d="M33.5 23.5122C32.9477 23.5122 32.5 23.9599 32.5 24.5122C32.5 25.0645 32.9477 25.5122 33.5 25.5122C34.0523 25.5122 34.5 25.0645 34.5 24.5122C34.5 23.9599 34.0523 23.5122 33.5 23.5122Z" fill="#FF00A6"/>
<path fill-rule="evenodd" clip-rule="evenodd" d="M25.0622 33.163C22.7027 34.164 20.114 32.7206 19.5939 30.3542L19.3624 30.4442C19.0548 30.5639 18.7079 30.524 18.4354 30.3376C18.1629 30.1512 18 29.8423 18 29.5122V23.0122C18 19.959 19.2623 17.6127 21.1808 16.0495C23.075 14.5061 25.5592 13.7622 28 13.7622C30.4408 13.7622 32.925 14.5061 34.8192 16.0495C36.7377 17.6127 38 19.959 38 23.0122V27.0122C38 27.4136 37.76 27.776 37.3906 27.9328L25.0622 33.163ZM27.8832 20.5191L20.1505 21.4288C20.4792 19.7784 21.3228 18.5137 22.4442 17.5999C23.925 16.3934 25.9408 15.7622 28 15.7622C30.0592 15.7622 32.075 16.3934 33.5558 17.5999C35.0123 18.7867 36 20.5654 36 23.0122V26.3502L24.2811 31.3218C23.0027 31.8642 21.5897 30.9714 21.5041 29.6113L28.3624 26.9442C28.7468 26.7947 29 26.4246 29 26.0122V21.5122C29 21.2266 28.8779 20.9547 28.6645 20.7649C28.4511 20.5752 28.1668 20.4857 27.8832 20.5191ZM27 25.3281L20 28.0504V23.4603L27 22.6368V25.3281Z" fill="#FF00A6"/>
</g>
<defs>
<filter id="filter0_d" x="0" y="0.012207" width="56" height="56" filterUnits="userSpaceOnUse" color-interpolation-filters="sRGB">
<feFlood flood-opacity="0" result="BackgroundImageFix"/>
<feColorMatrix in="SourceAlpha" type="matrix" values="0 0 0 0 0 0 0 0 0 0 0 0 0 0 0 0 0 0 127 0"/>
<feMorphology radius="8" operator="erode" in="SourceAlpha" result="effect1_dropShadow"/>
<feOffset dy="4"/>
<feGaussianBlur stdDeviation="8"/>
<feColorMatrix type="matrix" values="0 0 0 0 0 0 0 0 0 0 0 0 0 0 0 0 0 0 0.1 0"/>
<feBlend mode="normal" in2="BackgroundImageFix" result="effect1_dropShadow"/>
<feBlend mode="normal" in="SourceGraphic" in2="effect1_dropShadow" result="shape"/>
</filter>
</defs>
</svg>
