<svg width="85" height="58" viewBox="0 0 85 58" fill="none" xmlns="http://www.w3.org/2000/svg">
<rect opacity="0.1" x="58" y="47.0122" width="10" height="10" rx="5" fill="#181B1F"/>
<path d="M62 22.0122C62 21.4599 62.4477 21.0122 63 21.0122C63.5523 21.0122 64 21.4599 64 22.0122V52.0122C64 52.5645 63.5523 53.0122 63 53.0122C62.4477 53.0122 62 52.5645 62 52.0122V22.0122Z" fill="#181B1F"/>
<g filter="url(#filter0_d)">
<rect x="6" y="5.01221" width="73" height="32" rx="7" fill="white"/>
<path d="M15.602 24.3774C15.0704 24.3774 14.549 24.276 14.0376 24.0731C13.5304 23.8702 13.0597 23.5435 12.6255 23.0931L13.7272 21.5409C13.9261 21.7235 14.1188 21.8737 14.3055 21.9913C14.4921 22.105 14.6707 22.1942 14.8411 22.2592C15.0116 22.3241 15.1719 22.3687 15.322 22.3931C15.4762 22.4174 15.6203 22.4296 15.7542 22.4296C15.8637 22.4296 15.9814 22.4235 16.1072 22.4113C16.233 22.3951 16.3568 22.3708 16.4785 22.3383C16.6043 22.3058 16.722 22.2653 16.8316 22.2166C16.9411 22.1679 17.0365 22.107 17.1176 22.0339C16.9634 21.6606 16.795 21.2731 16.6124 20.8713C16.4339 20.4655 16.2533 20.0597 16.0707 19.6539C15.8881 19.2441 15.7075 18.8383 15.529 18.4366C15.3504 18.0348 15.184 17.6493 15.0298 17.28L16.8072 16.5374L18.8159 21.3887C18.889 21.5673 18.9559 21.7235 19.0168 21.8574C19.0776 21.9913 19.1487 22.1029 19.2298 22.1922C19.315 22.2815 19.4145 22.3484 19.5281 22.3931C19.6458 22.4337 19.7959 22.4539 19.9785 22.4539H20.155V24.3774H19.9785C19.731 24.3774 19.5119 24.3612 19.3211 24.3287C19.1345 24.2963 18.9661 24.2496 18.8159 24.1887C18.6698 24.1319 18.5379 24.0629 18.4203 23.9818C18.3066 23.8966 18.1991 23.8032 18.0976 23.7018C17.911 23.8276 17.7243 23.9331 17.5376 24.0183C17.351 24.1076 17.1562 24.1786 16.9533 24.2313C16.7504 24.2841 16.5374 24.3206 16.3142 24.3409C16.095 24.3653 15.8576 24.3774 15.602 24.3774ZM20.0352 22.4539C20.234 22.4539 20.4044 22.4397 20.5465 22.4113C20.6885 22.3829 20.8062 22.3484 20.8995 22.3079C20.9969 22.2632 21.074 22.2166 21.1308 22.1679C21.1876 22.1151 21.2323 22.0664 21.2647 22.0218L21.2586 22.0279C21.3154 21.9426 21.3723 21.8453 21.4291 21.7357C21.4859 21.6221 21.5468 21.4719 21.6117 21.2853C21.6807 21.0986 21.7537 20.8632 21.8308 20.5792C21.912 20.291 22.0033 19.9319 22.1047 19.5018L23.6995 20.0192C23.6589 20.1734 23.6204 20.3215 23.5839 20.4635C23.5473 20.6015 23.521 20.7374 23.5047 20.8713C23.4925 21.0053 23.4925 21.1392 23.5047 21.2731C23.5169 21.407 23.5514 21.547 23.6082 21.6931C23.7786 21.409 23.9572 21.129 24.1439 20.8531C24.3305 20.5731 24.5314 20.3093 24.7465 20.0618C24.9656 19.8102 25.201 19.5768 25.4525 19.3618C25.7041 19.1467 25.9801 18.9621 26.2804 18.8079C26.5847 18.6496 26.9154 18.5258 27.2725 18.4366C27.6337 18.3432 28.0273 18.2945 28.4534 18.2905C28.9485 18.2864 29.3847 18.3696 29.7621 18.54C30.1395 18.7064 30.454 18.9276 30.7056 19.2035C30.9612 19.4754 31.1499 19.7838 31.2717 20.1287C31.3934 20.4737 31.4462 20.8206 31.4299 21.1696C31.4137 21.4171 31.3731 21.6484 31.3082 21.8635C31.2473 22.0745 31.1641 22.2713 31.0586 22.4539H31.923V24.3774H30.0178C29.8027 24.3774 29.612 24.3754 29.4456 24.3713C29.2833 24.3673 29.1352 24.3592 29.0012 24.347C28.8673 24.3389 28.7476 24.3247 28.6421 24.3044C28.5366 24.2841 28.4392 24.2557 28.3499 24.2192C27.9523 24.3206 27.5505 24.3916 27.1447 24.4322C26.743 24.4768 26.3534 24.4992 25.976 24.4992C25.5783 24.4992 25.2212 24.487 24.9047 24.4626C24.5882 24.4383 24.292 24.3896 24.016 24.3166C23.7441 24.2476 23.4865 24.1481 23.243 24.0183C23.0036 23.8925 22.7621 23.7261 22.5186 23.5192C22.2265 23.8113 21.8836 24.0264 21.4899 24.1644C21.0963 24.3024 20.6296 24.3734 20.0899 24.3774H19.9134V22.4539H20.0352ZM28.4291 20.2261C28.1694 20.2261 27.9137 20.2626 27.6621 20.3357C27.4146 20.4047 27.1772 20.498 26.9499 20.6157C26.7268 20.7334 26.5137 20.8693 26.3108 21.0235C26.112 21.1777 25.9294 21.338 25.763 21.5044C25.5966 21.6708 25.4485 21.8371 25.3186 22.0035C25.1928 22.1699 25.0894 22.3261 25.0082 22.4722C25.1665 22.4803 25.345 22.4864 25.5439 22.4905C25.7427 22.4945 25.9354 22.4966 26.1221 22.4966C26.3737 22.4966 26.6334 22.4905 26.9012 22.4783C27.1731 22.4621 27.4389 22.4357 27.6986 22.3992C27.9624 22.3586 28.214 22.3038 28.4534 22.2348C28.6969 22.1658 28.916 22.0786 29.1108 21.9731C29.3096 21.8635 29.4781 21.7337 29.616 21.5835C29.7581 21.4334 29.8575 21.2568 29.9143 21.0539C29.8737 20.7699 29.7236 20.5609 29.4639 20.427C29.2041 20.2931 28.8592 20.2261 28.4291 20.2261ZM31.6849 22.4539H32.1232C32.2165 22.4539 32.3119 22.4519 32.4092 22.4479C32.5066 22.4397 32.5979 22.4316 32.6832 22.4235C32.7684 22.4113 32.8333 22.3951 32.8779 22.3748C32.8049 22.2937 32.7339 22.2064 32.6649 22.1131C32.5959 22.0157 32.533 21.9102 32.4762 21.7966C32.4235 21.6829 32.3788 21.5612 32.3423 21.4313C32.3058 21.2974 32.2835 21.1534 32.2753 20.9992C32.2672 20.7597 32.2916 20.5183 32.3484 20.2748C32.4092 20.0273 32.4965 19.7879 32.6101 19.5566C32.7237 19.3253 32.8617 19.1102 33.024 18.9113C33.1864 18.7084 33.3669 18.5339 33.5658 18.3879C33.7646 18.2377 33.9777 18.1241 34.2049 18.047C34.4362 17.9658 34.6756 17.9293 34.9232 17.9374C35.2762 17.9537 35.6049 18.045 35.9092 18.2113C36.2136 18.3777 36.4753 18.5928 36.6945 18.8566C36.9177 19.1203 37.0921 19.4206 37.2179 19.7574C37.3478 20.0902 37.4127 20.4331 37.4127 20.7861C37.4127 21.0661 37.3661 21.3421 37.2727 21.6139C37.1794 21.8818 37.0617 22.1374 36.9197 22.3809C37.0252 22.4053 37.155 22.4235 37.3092 22.4357C37.4635 22.4479 37.6603 22.4539 37.8997 22.4539H38.0214V24.3774H37.784C37.5203 24.3774 37.2687 24.3693 37.0292 24.3531C36.7939 24.3409 36.5606 24.3166 36.3292 24.28C36.102 24.2435 35.8727 24.1928 35.6414 24.1279C35.4142 24.067 35.1768 23.9858 34.9292 23.8844C34.7791 23.9696 34.5904 24.0426 34.3632 24.1035C34.14 24.1684 33.8945 24.2192 33.6266 24.2557C33.3588 24.2963 33.0788 24.3267 32.7866 24.347C32.4945 24.3673 32.2064 24.3774 31.9223 24.3774H31.6849V22.4539ZM35.7997 20.9261C35.7997 20.7963 35.7672 20.6725 35.7023 20.5548C35.6414 20.4371 35.5643 20.3316 35.471 20.2383C35.3817 20.145 35.2843 20.0679 35.1788 20.007C35.0733 19.9421 34.9779 19.8974 34.8927 19.8731C34.7994 19.8934 34.6919 19.9299 34.5701 19.9826C34.4524 20.0354 34.3388 20.1105 34.2292 20.2079C34.1237 20.3012 34.0345 20.4168 33.9614 20.5548C33.8884 20.6887 33.8519 20.849 33.8519 21.0357C33.8519 21.0966 33.8823 21.1818 33.9432 21.2913C34.0081 21.3968 34.0892 21.5064 34.1866 21.62C34.2881 21.7296 34.4017 21.8331 34.5275 21.9305C34.6574 22.0238 34.7892 22.0908 34.9232 22.1313C35.0246 22.0745 35.1281 21.9974 35.2336 21.9C35.3391 21.7986 35.4324 21.6931 35.5136 21.5835C35.5988 21.4699 35.6678 21.3563 35.7206 21.2426C35.7733 21.125 35.7997 21.0195 35.7997 20.9261ZM34.8136 16.0566L33.6692 17.2009L32.4884 16.0261L33.6571 14.8513L34.8136 16.0079L35.9579 14.8635L37.1388 16.0383L35.9701 17.2131L34.8136 16.0566ZM43.0599 24.3592C42.8165 24.3592 42.5649 24.3328 42.3052 24.28C42.0455 24.2313 41.7898 24.1644 41.5382 24.0792C41.2907 23.9939 41.0513 23.8966 40.8199 23.787C40.5927 23.6734 40.3898 23.5577 40.2113 23.44C40.0773 23.6186 39.9333 23.7687 39.7791 23.8905C39.6289 24.0081 39.4666 24.1035 39.2921 24.1766C39.1217 24.2496 38.935 24.3003 38.7321 24.3287C38.5333 24.3612 38.3182 24.3774 38.0869 24.3774H37.7826V22.4539H38.0869C38.3547 22.4539 38.5799 22.3992 38.7626 22.2896C38.9452 22.18 39.1014 22.04 39.2313 21.8696C39.3611 21.6951 39.4747 21.5044 39.5721 21.2974C39.6736 21.0864 39.7771 20.8815 39.8826 20.6826C40.0043 20.4351 40.1402 20.1876 40.2904 19.94C40.4446 19.6925 40.6211 19.4693 40.8199 19.2705C41.0188 19.0716 41.242 18.9113 41.4895 18.7896C41.7411 18.6638 42.0231 18.6009 42.3356 18.6009C42.7617 18.6009 43.1269 18.7003 43.4313 18.8992C43.7397 19.0939 43.9933 19.3516 44.1921 19.6722C44.391 19.9887 44.5371 20.3499 44.6304 20.7557C44.7278 21.1574 44.7765 21.5632 44.7765 21.9731C44.7765 22.318 44.7257 22.6366 44.6243 22.9287C44.5228 23.2209 44.391 23.4725 44.2286 23.6835C44.0663 23.8945 43.8817 24.0589 43.6747 24.1766C43.4718 24.2983 43.2669 24.3592 43.0599 24.3592ZM42.2808 20.4574C42.1631 20.4574 42.0536 20.5041 41.9521 20.5974C41.8507 20.6867 41.7553 20.7983 41.666 20.9322C41.5768 21.0661 41.4956 21.2122 41.4226 21.3705C41.3536 21.5287 41.2907 21.6748 41.2339 21.8087C41.3678 21.8939 41.5199 21.9731 41.6904 22.0461C41.8608 22.1192 42.0373 22.1841 42.2199 22.2409C42.4026 22.2937 42.5872 22.3383 42.7739 22.3748C42.9605 22.4113 43.1391 22.4377 43.3095 22.4539C43.3298 22.2064 43.3176 21.9629 43.273 21.7235C43.2284 21.4841 43.1573 21.271 43.0599 21.0844C42.9666 20.8977 42.853 20.7476 42.7191 20.6339C42.5852 20.5163 42.4391 20.4574 42.2808 20.4574Z" fill="#3A3D42"/>
<path fill-rule="evenodd" clip-rule="evenodd" d="M54 7.01221C51.2386 7.01221 49 9.25078 49 12.0122V30.0122C49 32.7736 51.2386 35.0122 54 35.0122H72C74.7614 35.0122 77 32.7736 77 30.0122V12.0122C77 9.25078 74.7614 7.01221 72 7.01221H54ZM60 16.0122C58.8954 16.0122 58 16.9076 58 18.0122V24.0122C58 25.1168 58.8954 26.0122 60 26.0122H66C67.1046 26.0122 68 25.1168 68 24.0122V18.0122C68 16.9076 67.1046 16.0122 66 16.0122H60Z" fill="#FF00A6"/>
</g>
<defs>
<filter id="filter0_d" x="0" y="0.012207" width="85" height="44" filterUnits="userSpaceOnUse" color-interpolation-filters="sRGB">
<feFlood flood-opacity="0" result="BackgroundImageFix"/>
<feColorMatrix in="SourceAlpha" type="matrix" values="0 0 0 0 0 0 0 0 0 0 0 0 0 0 0 0 0 0 127 0"/>
<feOffset dy="1"/>
<feGaussianBlur stdDeviation="3"/>
<feColorMatrix type="matrix" values="0 0 0 0 0 0 0 0 0 0 0 0 0 0 0 0 0 0 0.1 0"/>
<feBlend mode="normal" in2="BackgroundImageFix" result="effect1_dropShadow"/>
<feBlend mode="normal" in="SourceGraphic" in2="effect1_dropShadow" result="shape"/>
</filter>
</defs>
</svg>
